<svg xmlns="http://www.w3.org/2000/svg" version="1.1" xmlns:xlink="http://www.w3.org/1999/xlink" xmlns:svgjs="http://svgjs.dev/svgjs" viewBox="0 0 10.611921978017287 10.494837125772852"><g transform="matrix(1,0,0,1,0.8794320583445812,8.796405067428271)"><rect width="10.611921978017287" height="10.611921978017287" x="-0.8794320583445812" y="-8.854947493550487" fill="#fffdfa"></rect><g><path d=" M 0.3105 0.7462500000000001 Q 0.318 0.768 0.3375 0.7755000000000001 Q 0.357 0.783 0.4005 0.783 Q 0.4035 0.783 0.4035 0.792 Q 0.4035 0.801 0.4005 0.801 Q 0.354 0.801 0.3285 0.7995000000000001 L 0.2265 0.798 L 0.129 0.7995000000000001 Q 0.10200000000000001 0.801 0.054 0.801 Q 0.051000000000000004 0.801 0.051000000000000004 0.792 Q 0.051000000000000004 0.783 0.054 0.783 Q 0.0975 0.783 0.11775000000000001 0.7755000000000001 Q 0.138 0.768 0.1455 0.7462500000000001 Q 0.153 0.7245 0.153 0.6795 L 0.153 0.22050000000000003 Q 0.153 0.1755 0.1455 0.15450000000000008 Q 0.138 0.13350000000000006 0.11775000000000001 0.12525000000000008 Q 0.0975 0.11699999999999999 0.054 0.11699999999999999 Q 0.051000000000000004 0.11699999999999999 0.051000000000000004 0.10799999999999998 Q 0.051000000000000004 0.09899999999999998 0.054 0.09899999999999998 L 0.129 0.10050000000000003 Q 0.189 0.10350000000000004 0.2265 0.10350000000000004 Q 0.267 0.10350000000000004 0.33 0.10050000000000003 L 0.4005 0.09899999999999998 Q 0.4035 0.09899999999999998 0.4035 0.10799999999999998 Q 0.4035 0.11699999999999999 0.4005 0.11699999999999999 Q 0.3585 0.11699999999999999 0.33825 0.126 Q 0.318 0.135 0.3105 0.15675000000000006 Q 0.303 0.1785 0.303 0.22350000000000003 L 0.303 0.6795 Q 0.303 0.7245 0.3105 0.7462500000000001 M 0.6922177734375 0.28275000000000006 Q 0.7154677734375 0.31350000000000006 0.7492177734375001 0.33525000000000005 Q 0.7829677734375 0.35700000000000004 0.8414677734375 0.387 Q 0.9089677734375 0.42300000000000004 0.9472177734375 0.44775000000000004 Q 0.9854677734375 0.47250000000000003 1.0132177734374999 0.5115000000000001 Q 1.0409677734375 0.5505 1.0409677734375 0.6045 Q 1.0409677734375 0.6645000000000001 1.0057177734375 0.71325 Q 0.9704677734375 0.762 0.9089677734375 0.7905000000000001 Q 0.8474677734375 0.8190000000000001 0.7709677734375 0.8190000000000001 Q 0.7019677734375 0.8190000000000001 0.6367177734375 0.8017500000000001 Q 0.5714677734375 0.7845000000000001 0.5459677734375 0.7635000000000001 Q 0.5339677734375 0.756 0.5339677734375 0.732 L 0.5264677734375001 0.5625 Q 0.5264677734375001 0.5565 0.5339677734375 0.555 Q 0.5414677734375 0.5535000000000001 0.5444677734375 0.5595000000000001 Q 0.6014677734375 0.6585000000000001 0.6599677734375 0.7215 Q 0.7184677734375 0.7845000000000001 0.7934677734375 0.7845000000000001 Q 0.8384677734375 0.7845000000000001 0.8684677734375 0.7575000000000001 Q 0.8984677734375 0.7305 0.8984677734375 0.6765000000000001 Q 0.8984677734375 0.6285000000000001 0.8737177734375 0.5925 Q 0.8489677734375001 0.5565 0.8129677734375 0.5317500000000001 Q 0.7769677734375 0.5070000000000001 0.7169677734375 0.47400000000000003 Q 0.6284677734375 0.42600000000000005 0.5819677734375 0.38325000000000004 Q 0.5354677734375 0.3405 0.5354677734375 0.2715000000000001 Q 0.5354677734375 0.1845 0.6119677734375 0.13275000000000003 Q 0.6884677734375 0.08100000000000007 0.7964677734375001 0.08100000000000007 Q 0.8444677734375 0.08100000000000007 0.8969677734375 0.09150000000000003 Q 0.9494677734375 0.10199999999999998 0.9809677734375 0.11550000000000005 Q 0.9944677734375 0.12 0.9989677734375 0.12675000000000003 Q 1.0034677734375 0.13350000000000006 1.0034677734375 0.14550000000000007 L 1.0034677734375 0.28800000000000003 Q 1.0034677734375 0.2925 0.9959677734375 0.29475000000000007 Q 0.9884677734375 0.29700000000000004 0.9854677734375 0.2925 Q 0.9569677734375001 0.23250000000000004 0.9059677734375 0.17400000000000004 Q 0.8549677734375001 0.11550000000000005 0.7709677734375 0.11550000000000005 Q 0.7199677734375001 0.11550000000000005 0.6944677734375 0.14175000000000004 Q 0.6689677734375 0.16800000000000004 0.6689677734375 0.21000000000000008 Q 0.6689677734375 0.252 0.6922177734375 0.28275000000000006 M 1.3252133789062501 0.28275000000000006 Q 1.3484633789062501 0.31350000000000006 1.38221337890625 0.33525000000000005 Q 1.41596337890625 0.35700000000000004 1.47446337890625 0.387 Q 1.54196337890625 0.42300000000000004 1.58021337890625 0.44775000000000004 Q 1.6184633789062501 0.47250000000000003 1.6462133789062499 0.5115000000000001 Q 1.67396337890625 0.5505 1.67396337890625 0.6045 Q 1.67396337890625 0.6645000000000001 1.63871337890625 0.71325 Q 1.60346337890625 0.762 1.54196337890625 0.7905000000000001 Q 1.48046337890625 0.8190000000000001 1.40396337890625 0.8190000000000001 Q 1.33496337890625 0.8190000000000001 1.26971337890625 0.8017500000000001 Q 1.20446337890625 0.7845000000000001 1.17896337890625 0.7635000000000001 Q 1.16696337890625 0.756 1.16696337890625 0.732 L 1.15946337890625 0.5625 Q 1.15946337890625 0.5565 1.16696337890625 0.555 Q 1.17446337890625 0.5535000000000001 1.17746337890625 0.5595000000000001 Q 1.23446337890625 0.6585000000000001 1.29296337890625 0.7215 Q 1.35146337890625 0.7845000000000001 1.42646337890625 0.7845000000000001 Q 1.47146337890625 0.7845000000000001 1.5014633789062501 0.7575000000000001 Q 1.53146337890625 0.7305 1.53146337890625 0.6765000000000001 Q 1.53146337890625 0.6285000000000001 1.50671337890625 0.5925 Q 1.48196337890625 0.5565 1.44596337890625 0.5317500000000001 Q 1.40996337890625 0.5070000000000001 1.34996337890625 0.47400000000000003 Q 1.26146337890625 0.42600000000000005 1.21496337890625 0.38325000000000004 Q 1.16846337890625 0.3405 1.16846337890625 0.2715000000000001 Q 1.16846337890625 0.1845 1.24496337890625 0.13275000000000003 Q 1.32146337890625 0.08100000000000007 1.42946337890625 0.08100000000000007 Q 1.4774633789062501 0.08100000000000007 1.52996337890625 0.09150000000000003 Q 1.58246337890625 0.10199999999999998 1.61396337890625 0.11550000000000005 Q 1.62746337890625 0.12 1.63196337890625 0.12675000000000003 Q 1.63646337890625 0.13350000000000006 1.63646337890625 0.14550000000000007 L 1.63646337890625 0.28800000000000003 Q 1.63646337890625 0.2925 1.62896337890625 0.29475000000000007 Q 1.62146337890625 0.29700000000000004 1.6184633789062501 0.2925 Q 1.58996337890625 0.23250000000000004 1.53896337890625 0.17400000000000004 Q 1.48796337890625 0.11550000000000005 1.40396337890625 0.11550000000000005 Q 1.35296337890625 0.11550000000000005 1.32746337890625 0.14175000000000004 Q 1.30196337890625 0.16800000000000004 1.30196337890625 0.21000000000000008 Q 1.30196337890625 0.252 1.3252133789062501 0.28275000000000006 M 2.521458984375 0.12525000000000008 Q 2.504958984375 0.13350000000000006 2.498958984375 0.15450000000000008 Q 2.492958984375 0.1755 2.492958984375 0.22050000000000003 L 2.492958984375 0.6795 Q 2.492958984375 0.7245 2.498958984375 0.7462500000000001 Q 2.504958984375 0.768 2.520708984375 0.7755000000000001 Q 2.536458984375 0.783 2.569458984375 0.783 Q 2.573958984375 0.783 2.573958984375 0.792 Q 2.573958984375 0.801 2.569458984375 0.801 L 2.471958984375 0.7995000000000001 L 2.371458984375 0.801 Q 2.353458984375 0.801 2.348208984375 0.7965000000000001 Q 2.342958984375 0.792 2.342958984375 0.7725000000000001 L 2.342958984375 0.6915 Q 2.230458984375 0.8190000000000001 2.075958984375 0.8190000000000001 Q 1.972458984375 0.8190000000000001 1.901958984375 0.7635000000000001 Q 1.831458984375 0.7080000000000001 1.831458984375 0.5925 L 1.831458984375 0.22050000000000003 Q 1.831458984375 0.1755 1.826958984375 0.15450000000000008 Q 1.822458984375 0.13350000000000006 1.810458984375 0.12525000000000008 Q 1.798458984375 0.11699999999999999 1.772958984375 0.11699999999999999 Q 1.769958984375 0.11699999999999999 1.769958984375 0.10799999999999998 Q 1.769958984375 0.09899999999999998 1.772958984375 0.09899999999999998 L 1.831458984375 0.10050000000000003 Q 1.879458984375 0.10350000000000004 1.909458984375 0.10350000000000004 Q 1.945458984375 0.10350000000000004 1.999458984375 0.10050000000000003 L 2.059458984375 0.09899999999999998 Q 2.062458984375 0.09899999999999998 2.062458984375 0.10799999999999998 Q 2.062458984375 0.11699999999999999 2.059458984375 0.11699999999999999 Q 2.024958984375 0.11699999999999999 2.0084589843750003 0.126 Q 1.991958984375 0.135 1.985958984375 0.15675000000000006 Q 1.979958984375 0.1785 1.979958984375 0.22350000000000003 L 1.979958984375 0.5565 Q 1.979958984375 0.6705000000000001 2.022708984375 0.7200000000000001 Q 2.065458984375 0.7695000000000001 2.135958984375 0.7695000000000001 Q 2.2529589843749998 0.7695000000000001 2.342958984375 0.642 L 2.342958984375 0.22350000000000003 Q 2.342958984375 0.1785 2.337708984375 0.15675000000000006 Q 2.332458984375 0.135 2.316708984375 0.126 Q 2.300958984375 0.11699999999999999 2.267958984375 0.11699999999999999 Q 2.263458984375 0.11699999999999999 2.263458984375 0.10799999999999998 Q 2.263458984375 0.09899999999999998 2.267958984375 0.09899999999999998 L 2.3369589843750003 0.10050000000000003 Q 2.3939589843749998 0.10350000000000004 2.423958984375 0.10350000000000004 Q 2.450958984375 0.10350000000000004 2.504958984375 0.10050000000000003 L 2.572458984375 0.09899999999999998 Q 2.576958984375 0.09899999999999998 2.576958984375 0.10799999999999998 Q 2.576958984375 0.11699999999999999 2.572458984375 0.11699999999999999 Q 2.537958984375 0.11699999999999999 2.521458984375 0.12525000000000008 M 2.82295751953125 0.3975 Q 2.82295751953125 0.5640000000000001 2.89645751953125 0.663 Q 2.96995751953125 0.762 3.10345751953125 0.762 Q 3.1409575195312502 0.762 3.17995751953125 0.7515000000000001 Q 3.21895751953125 0.7410000000000001 3.24895751953125 0.7200000000000001 L 3.25045751953125 0.7200000000000001 Q 3.25495751953125 0.7200000000000001 3.2587075195312503 0.7252500000000001 Q 3.26245751953125 0.7305 3.25945751953125 0.7350000000000001 Q 3.15445751953125 0.8190000000000001 3.02845751953125 0.8190000000000001 Q 2.91145751953125 0.8190000000000001 2.82970751953125 0.76875 Q 2.74795751953125 0.7185 2.70595751953125 0.6375000000000001 Q 2.66395751953125 0.5565 2.66395751953125 0.462 Q 2.66395751953125 0.35850000000000004 2.71495751953125 0.27225 Q 2.76595751953125 0.18600000000000005 2.85295751953125 0.13575000000000004 Q 2.93995751953125 0.08550000000000002 3.04195751953125 0.08550000000000002 Q 3.15295751953125 0.08550000000000002 3.2114575195312502 0.14400000000000002 Q 3.26995751953125 0.2025 3.26995751953125 0.29700000000000004 Q 3.26995751953125 0.31650000000000006 3.26620751953125 0.324 Q 3.26245751953125 0.3315 3.25195751953125 0.3315 L 2.82595751953125 0.333 Q 2.82295751953125 0.37200000000000005 2.82295751953125 0.3975 M 2.88670751953125 0.16949999999999998 Q 2.84545751953125 0.21750000000000003 2.83045751953125 0.30300000000000005 L 3.10945751953125 0.2985 Q 3.10645751953125 0.12150000000000005 2.99095751953125 0.12150000000000005 Q 2.92795751953125 0.12150000000000005 2.88670751953125 0.16949999999999998 M 4.19097509765625 0.7140000000000001 Q 4.19697509765625 0.7140000000000001 4.1992250976562495 0.7200000000000001 Q 4.20147509765625 0.7260000000000001 4.19697509765625 0.7290000000000001 Q 4.13547509765625 0.7785000000000001 4.08672509765625 0.7987500000000001 Q 4.03797509765625 0.8190000000000001 3.97797509765625 0.8190000000000001 Q 3.88797509765625 0.8190000000000001 3.82647509765625 0.771 Q 3.76497509765625 0.7230000000000001 3.76497509765625 0.6120000000000001 L 3.76497509765625 0.21900000000000008 Q 3.76497509765625 0.1785 3.74772509765625 0.16500000000000004 Q 3.73047509765625 0.15150000000000008 3.68397509765625 0.15150000000000008 Q 3.67947509765625 0.15150000000000008 3.67947509765625 0.138 Q 3.67947509765625 0.12450000000000006 3.68397509765625 0.12450000000000006 Q 3.76047509765625 0.12450000000000006 3.81747509765625 0.09150000000000003 Q 3.87447509765625 0.058499999999999996 3.89097509765625 0.0045000000000000595 Q 3.89397509765625 0 3.89997509765625 0 Q 3.90597509765625 0 3.91047509765625 0.0022499999999999742 Q 3.91497509765625 0.0045000000000000595 3.91497509765625 0.007500000000000062 L 3.91497509765625 0.11699999999999999 Q 4.01847509765625 0.11550000000000005 4.15647509765625 0.10350000000000004 Q 4.16097509765625 0.10350000000000004 4.16397509765625 0.11399999999999999 Q 4.16697509765625 0.12450000000000006 4.16697509765625 0.13950000000000007 Q 4.16697509765625 0.15450000000000008 4.16172509765625 0.16875000000000007 Q 4.15647509765625 0.18300000000000005 4.15197509765625 0.1815 Q 4.08147509765625 0.16349999999999998 3.91497509765625 0.15750000000000008 L 3.91497509765625 0.5775 Q 3.91497509765625 0.756 4.04697509765625 0.756 Q 4.12797509765625 0.756 4.18797509765625 0.7155 L 4.19097509765625 0.7140000000000001 M 5.072982421875 0.792 Q 5.072982421875 0.801 5.068482421875 0.801 L 4.822482421875 0.801 Q 4.799982421875 0.801 4.742232421875 0.7110000000000001 Q 4.684482421875 0.621 4.604982421875 0.4635 Q 4.573482421875 0.468 4.541982421875 0.468 L 4.516482421875 0.468 L 4.516482421875 0.6795 Q 4.516482421875 0.7260000000000001 4.523232421875 0.747 Q 4.529982421875 0.768 4.548732421875 0.7755000000000001 Q 4.567482421875 0.783 4.609482421875 0.783 Q 4.612482421875 0.783 4.612482421875 0.792 Q 4.612482421875 0.801 4.609482421875 0.801 Q 4.564482421875 0.801 4.538982421875 0.7995000000000001 L 4.436982421875 0.798 L 4.339482421875 0.7995000000000001 Q 4.312482421875 0.801 4.264482421875 0.801 Q 4.261482421875 0.801 4.261482421875 0.792 Q 4.261482421875 0.783 4.264482421875 0.783 Q 4.306482421875 0.783 4.325982421875 0.7755000000000001 Q 4.345482421875 0.768 4.352982421875 0.7462500000000001 Q 4.360482421875 0.7245 4.360482421875 0.6795 L 4.360482421875 0.22050000000000003 Q 4.360482421875 0.1755 4.353732421875 0.15450000000000008 Q 4.346982421875 0.13350000000000006 4.327482421875 0.12525000000000008 Q 4.307982421875 0.11699999999999999 4.267482421875 0.11699999999999999 Q 4.262982421875 0.11699999999999999 4.262982421875 0.10799999999999998 Q 4.262982421875 0.09899999999999998 4.267482421875 0.09899999999999998 L 4.340982421875 0.10050000000000003 Q 4.400982421875 0.10350000000000004 4.436982421875 0.10350000000000004 Q 4.465482421875 0.10350000000000004 4.489482421875 0.10199999999999998 Q 4.513482421875 0.10050000000000003 4.531482421875 0.09899999999999998 Q 4.580982421875 0.09450000000000003 4.624482421875 0.09450000000000003 Q 4.741482421875 0.09450000000000003 4.802982421875 0.132 Q 4.864482421875 0.16949999999999998 4.864482421875 0.24 Q 4.864482421875 0.2985 4.826982421875 0.34800000000000003 Q 4.789482421875 0.3975 4.723482421875 0.42900000000000005 Q 4.804482421875 0.5655 4.8629824218749995 0.642 Q 4.921482421875 0.7185 4.969482421875 0.75075 Q 5.017482421875 0.783 5.068482421875 0.783 Q 5.072982421875 0.783 5.072982421875 0.792 M 4.552482421875 0.43950000000000006 Q 4.637982421875 0.43950000000000006 4.670982421875 0.39975000000000005 Q 4.703982421875 0.36000000000000004 4.703982421875 0.2805000000000001 Q 4.703982421875 0.12450000000000006 4.589982421875 0.12450000000000006 Q 4.558482421875 0.12450000000000006 4.543482421875 0.132 Q 4.528482421875 0.13950000000000007 4.522482421875 0.15975000000000006 Q 4.516482421875 0.18000000000000005 4.516482421875 0.22350000000000003 L 4.516482421875 0.43800000000000006 Q 4.526982421875 0.43950000000000006 4.552482421875 0.43950000000000006 M 5.76297802734375 0.7125 Q 5.76747802734375 0.7125 5.76972802734375 0.7200000000000001 Q 5.77197802734375 0.7275 5.76597802734375 0.7290000000000001 L 5.60097802734375 0.8085 Q 5.59497802734375 0.8115 5.58747802734375 0.8115 Q 5.55897802734375 0.8115 5.53122802734375 0.7875000000000001 Q 5.50347802734375 0.7635000000000001 5.48847802734375 0.7110000000000001 L 5.39847802734375 0.7635000000000001 Q 5.35347802734375 0.7905000000000001 5.31822802734375 0.801 Q 5.28297802734375 0.8115 5.24547802734375 0.8115 Q 5.18697802734375 0.8115 5.14947802734375 0.78 Q 5.11197802734375 0.7485 5.11197802734375 0.6990000000000001 Q 5.11197802734375 0.6525000000000001 5.14272802734375 0.6172500000000001 Q 5.17347802734375 0.5820000000000001 5.22897802734375 0.5625 L 5.47797802734375 0.47400000000000003 L 5.47797802734375 0.2955 Q 5.47797802734375 0.20400000000000007 5.45922802734375 0.16200000000000003 Q 5.44047802734375 0.12 5.39847802734375 0.12 Q 5.35047802734375 0.12 5.32347802734375 0.16349999999999998 Q 5.29647802734375 0.20700000000000007 5.28147802734375 0.2745000000000001 Q 5.26497802734375 0.35850000000000004 5.19447802734375 0.35850000000000004 Q 5.15697802734375 0.35850000000000004 5.13522802734375 0.33975000000000005 Q 5.11347802734375 0.32100000000000006 5.11347802734375 0.2865000000000001 Q 5.11347802734375 0.24150000000000005 5.16972802734375 0.19425000000000003 Q 5.22597802734375 0.14700000000000002 5.30697802734375 0.11625000000000008 Q 5.38797802734375 0.08550000000000002 5.45547802734375 0.08550000000000002 Q 5.53497802734375 0.08550000000000002 5.58147802734375 0.12675000000000003 Q 5.62797802734375 0.16800000000000004 5.62797802734375 0.25050000000000006 L 5.62797802734375 0.5700000000000001 Q 5.62797802734375 0.6375000000000001 5.63997802734375 0.6705000000000001 Q 5.65197802734375 0.7035 5.67072802734375 0.7125 Q 5.68947802734375 0.7215 5.71947802734375 0.7215 Q 5.73447802734375 0.7215 5.75997802734375 0.7140000000000001 L 5.76297802734375 0.7125 M 5.48247802734375 0.681 Q 5.47797802734375 0.654 5.47797802734375 0.621 L 5.47797802734375 0.5055000000000001 L 5.34897802734375 0.5535000000000001 Q 5.27697802734375 0.5805 5.27697802734375 0.6495000000000001 Q 5.27697802734375 0.6900000000000001 5.29647802734375 0.71325 Q 5.31597802734375 0.7365 5.34897802734375 0.7365 Q 5.37297802734375 0.7365 5.41497802734375 0.7155 L 5.48247802734375 0.681 M 6.344255126953125 0.09300000000000008 Q 6.409505126953125 0.10499999999999998 6.451505126953125 0.12450000000000006 Q 6.462005126953125 0.129 6.465005126953125 0.13424999999999998 Q 6.468005126953125 0.13950000000000007 6.468005126953125 0.15000000000000002 L 6.475505126953125 0.30450000000000005 Q 6.475505126953125 0.30900000000000005 6.468005126953125 0.31050000000000005 Q 6.460505126953125 0.31200000000000006 6.457505126953125 0.30600000000000005 Q 6.400505126953125 0.20850000000000002 6.341255126953125 0.16125 Q 6.282005126953125 0.11399999999999999 6.205505126953125 0.11399999999999999 Q 6.099005126953125 0.11399999999999999 6.042005126953125 0.19874999999999998 Q 5.985005126953125 0.2835000000000001 5.985005126953125 0.42450000000000004 Q 5.985005126953125 0.5175000000000001 6.011255126953125 0.6000000000000001 Q 6.037505126953125 0.6825 6.094505126953125 0.7350000000000001 Q 6.151505126953125 0.7875000000000001 6.238505126953125 0.7875000000000001 Q 6.315005126953125 0.7875000000000001 6.368255126953125 0.7410000000000001 Q 6.421505126953125 0.6945 6.472505126953125 0.5910000000000001 Q 6.474005126953125 0.5850000000000001 6.481505126953125 0.5865 Q 6.489005126953125 0.5880000000000001 6.489005126953125 0.5925 L 6.4770051269531255 0.7515000000000001 Q 6.475505126953125 0.7635000000000001 6.472505126953125 0.768 Q 6.469505126953125 0.7725000000000001 6.456005126953125 0.7785000000000001 Q 6.340505126953125 0.8190000000000001 6.216005126953125 0.8190000000000001 Q 6.072005126953125 0.8190000000000001 5.980505126953125 0.762 Q 5.889005126953125 0.7050000000000001 5.847755126953125 0.6195 Q 5.806505126953125 0.534 5.806505126953125 0.44700000000000006 Q 5.806505126953125 0.34500000000000003 5.861255126953125 0.261 Q 5.916005126953125 0.17700000000000005 6.011255126953125 0.129 Q 6.106505126953125 0.08100000000000007 6.223505126953125 0.08100000000000007 Q 6.279005126953125 0.08100000000000007 6.344255126953125 0.09300000000000008 M 7.411549072265625 0.792 Q 7.411549072265625 0.801 7.407049072265625 0.801 L 7.207549072265625 0.801 Q 7.198549072265625 0.801 7.174549072265625 0.8017500000000001 Q 7.150549072265625 0.8025 7.098799072265625 0.7282500000000001 Q 7.047049072265625 0.654 6.994549072265625 0.5835 L 6.889549072265625 0.44250000000000006 L 6.849049072265625 0.48300000000000004 L 6.849049072265625 0.6795 Q 6.849049072265625 0.7245 6.856549072265625 0.7455 Q 6.864049072265625 0.7665000000000001 6.884299072265625 0.77475 Q 6.904549072265625 0.783 6.946549072265625 0.783 Q 6.949549072265625 0.783 6.949549072265625 0.792 Q 6.949549072265625 0.801 6.946549072265625 0.801 Q 6.900049072265625 0.801 6.874549072265625 0.7995000000000001 L 6.774049072265625 0.798 L 6.676549072265625 0.7995000000000001 Q 6.649549072265625 0.801 6.601549072265625 0.801 Q 6.598549072265625 0.801 6.598549072265625 0.792 Q 6.598549072265625 0.783 6.601549072265625 0.783 Q 6.645049072265625 0.783 6.665299072265625 0.7755000000000001 Q 6.685549072265625 0.768 6.693049072265625 0.7462500000000001 Q 6.700549072265625 0.7245 6.700549072265625 0.6795 L 6.700549072265625 0.22050000000000003 Q 6.700549072265625 0.1755 6.693049072265625 0.15450000000000008 Q 6.685549072265625 0.13350000000000006 6.665299072265625 0.12525000000000008 Q 6.645049072265625 0.11699999999999999 6.604549072265625 0.11699999999999999 Q 6.600049072265625 0.11699999999999999 6.600049072265625 0.10799999999999998 Q 6.600049072265625 0.09899999999999998 6.604549072265625 0.09899999999999998 L 6.676549072265625 0.10050000000000003 Q 6.736549072265625 0.10350000000000004 6.774049072265625 0.10350000000000004 Q 6.814549072265625 0.10350000000000004 6.874549072265625 0.10050000000000003 L 6.946549072265625 0.09899999999999998 Q 6.949549072265625 0.09899999999999998 6.949549072265625 0.10799999999999998 Q 6.949549072265625 0.11699999999999999 6.946549072265625 0.11699999999999999 Q 6.886549072265625 0.11699999999999999 6.867799072265625 0.138 Q 6.849049072265625 0.15900000000000003 6.849049072265625 0.22350000000000003 L 6.849049072265625 0.42300000000000004 L 7.030549072265625 0.243 Q 7.093549072265625 0.18000000000000005 7.093549072265625 0.14550000000000007 Q 7.093549072265625 0.11699999999999999 7.047049072265625 0.11699999999999999 Q 7.044049072265625 0.11699999999999999 7.044049072265625 0.10799999999999998 Q 7.044049072265625 0.09899999999999998 7.047049072265625 0.09899999999999998 L 7.110049072265625 0.10050000000000003 Q 7.167049072265625 0.10350000000000004 7.216549072265625 0.10350000000000004 Q 7.281049072265625 0.10350000000000004 7.332049072265625 0.10050000000000003 Q 7.347049072265625 0.09899999999999998 7.3665490722656255 0.09899999999999998 Q 7.371049072265625 0.09899999999999998 7.371049072265625 0.10799999999999998 Q 7.371049072265625 0.11699999999999999 7.3665490722656255 0.11699999999999999 Q 7.308049072265625 0.11699999999999999 7.218049072265625 0.1605000000000001 Q 7.128049072265625 0.20400000000000007 7.065049072265625 0.267 L 6.994549072265625 0.3375 L 7.122049072265625 0.504 Q 7.216549072265625 0.63 7.265299072265625 0.687 Q 7.314049072265625 0.744 7.344049072265625 0.7635000000000001 Q 7.374049072265625 0.783 7.407049072265625 0.783 Q 7.411549072265625 0.783 7.411549072265625 0.792 M 7.557057861328125 0.3975 Q 7.557057861328125 0.5640000000000001 7.630557861328125 0.663 Q 7.704057861328125 0.762 7.837557861328125 0.762 Q 7.875057861328125 0.762 7.914057861328125 0.7515000000000001 Q 7.953057861328125 0.7410000000000001 7.983057861328125 0.7200000000000001 L 7.984557861328125 0.7200000000000001 Q 7.989057861328125 0.7200000000000001 7.992807861328125 0.7252500000000001 Q 7.9965578613281245 0.7305 7.993557861328125 0.7350000000000001 Q 7.888557861328125 0.8190000000000001 7.762557861328125 0.8190000000000001 Q 7.645557861328125 0.8190000000000001 7.563807861328125 0.76875 Q 7.482057861328125 0.7185 7.440057861328125 0.6375000000000001 Q 7.398057861328125 0.5565 7.398057861328125 0.462 Q 7.398057861328125 0.35850000000000004 7.449057861328125 0.27225 Q 7.500057861328125 0.18600000000000005 7.587057861328125 0.13575000000000004 Q 7.674057861328125 0.08550000000000002 7.776057861328125 0.08550000000000002 Q 7.887057861328125 0.08550000000000002 7.945557861328125 0.14400000000000002 Q 8.004057861328125 0.2025 8.004057861328125 0.29700000000000004 Q 8.004057861328125 0.31650000000000006 8.000307861328125 0.324 Q 7.9965578613281245 0.3315 7.986057861328125 0.3315 L 7.560057861328125 0.333 Q 7.557057861328125 0.37200000000000005 7.557057861328125 0.3975 M 7.620807861328125 0.16949999999999998 Q 7.579557861328125 0.21750000000000003 7.564557861328125 0.30300000000000005 L 7.843557861328125 0.2985 Q 7.840557861328125 0.12150000000000005 7.725057861328125 0.12150000000000005 Q 7.662057861328125 0.12150000000000005 7.620807861328125 0.16949999999999998 M 8.886062255859375 0.792 Q 8.886062255859375 0.801 8.881562255859375 0.801 L 8.635562255859375 0.801 Q 8.613062255859376 0.801 8.555312255859375 0.7110000000000001 Q 8.497562255859375 0.621 8.418062255859375 0.4635 Q 8.386562255859374 0.468 8.355062255859375 0.468 L 8.329562255859376 0.468 L 8.329562255859376 0.6795 Q 8.329562255859376 0.7260000000000001 8.336312255859376 0.747 Q 8.343062255859374 0.768 8.361812255859375 0.7755000000000001 Q 8.380562255859376 0.783 8.422562255859376 0.783 Q 8.425562255859376 0.783 8.425562255859376 0.792 Q 8.425562255859376 0.801 8.422562255859376 0.801 Q 8.377562255859376 0.801 8.352062255859375 0.7995000000000001 L 8.250062255859374 0.798 L 8.152562255859374 0.7995000000000001 Q 8.125562255859375 0.801 8.077562255859375 0.801 Q 8.074562255859375 0.801 8.074562255859375 0.792 Q 8.074562255859375 0.783 8.077562255859375 0.783 Q 8.119562255859375 0.783 8.139062255859375 0.7755000000000001 Q 8.158562255859374 0.768 8.166062255859375 0.7462500000000001 Q 8.173562255859375 0.7245 8.173562255859375 0.6795 L 8.173562255859375 0.22050000000000003 Q 8.173562255859375 0.1755 8.166812255859375 0.15450000000000008 Q 8.160062255859375 0.13350000000000006 8.140562255859376 0.12525000000000008 Q 8.121062255859375 0.11699999999999999 8.080562255859375 0.11699999999999999 Q 8.076062255859375 0.11699999999999999 8.076062255859375 0.10799999999999998 Q 8.076062255859375 0.09899999999999998 8.080562255859375 0.09899999999999998 L 8.154062255859374 0.10050000000000003 Q 8.214062255859375 0.10350000000000004 8.250062255859374 0.10350000000000004 Q 8.278562255859375 0.10350000000000004 8.302562255859375 0.10199999999999998 Q 8.326562255859375 0.10050000000000003 8.344562255859374 0.09899999999999998 Q 8.394062255859374 0.09450000000000003 8.437562255859374 0.09450000000000003 Q 8.554562255859375 0.09450000000000003 8.616062255859376 0.132 Q 8.677562255859375 0.16949999999999998 8.677562255859375 0.24 Q 8.677562255859375 0.2985 8.640062255859375 0.34800000000000003 Q 8.602562255859375 0.3975 8.536562255859375 0.42900000000000005 Q 8.617562255859376 0.5655 8.676062255859375 0.642 Q 8.734562255859375 0.7185 8.782562255859375 0.75075 Q 8.830562255859375 0.783 8.881562255859375 0.783 Q 8.886062255859375 0.783 8.886062255859375 0.792 M 8.365562255859375 0.43950000000000006 Q 8.451062255859375 0.43950000000000006 8.484062255859374 0.39975000000000005 Q 8.517062255859376 0.36000000000000004 8.517062255859376 0.2805000000000001 Q 8.517062255859376 0.12450000000000006 8.403062255859375 0.12450000000000006 Q 8.371562255859375 0.12450000000000006 8.356562255859375 0.132 Q 8.341562255859374 0.13950000000000007 8.335562255859376 0.15975000000000006 Q 8.329562255859376 0.18000000000000005 8.329562255859376 0.22350000000000003 L 8.329562255859376 0.43800000000000006 Q 8.340062255859374 0.43950000000000006 8.365562255859375 0.43950000000000006" fill="#000000" fill-rule="nonzero"></path></g><g></g><g clip-path="url(#SvgjsClipPath1002)"><path d=" M 0.593042426122218 -6.970131861963329 L 8.260015435205906 -6.970131861963329 L 8.260015435205906 -1.1968411471203595 L 0.593042426122218 -1.1968411471203595 Z" fill="#ba8437" transform="matrix(1,0,0,1,0,0)" fill-rule="nonzero" mask="url(#maskedMgText-031a1bbf-0803-4d27-9fb5-1555fd634c09)"></path></g></g><defs><clipPath id="SvgjsClipPath1002"><path d=" M 0.593042426122218 -7.916973009083689 h 7.666973009083689 v 7.666973009083689 h -7.666973009083689 Z"></path></clipPath><mask id="maskedMgText-031a1bbf-0803-4d27-9fb5-1555fd634c09"><path d=" M 8.136716946386072 -3.5029369501406116 C 8.12325992848316 -3.4650195977019242 8.11007128415666 -3.427063906180892 8.099413019264894 -3.397351117363923 C 8.04017913704268 -3.3720473230165693 7.977763110985871 -3.4033320142096617 7.939232333229672 -3.349580620762706 L 7.798144510202 -3.3514975748799296 C 7.791243475379993 -3.4396774642722248 7.784342440557987 -3.5282407444879653 7.777748118394738 -3.6151937832452377 C 7.782463825523108 -3.6212130191733203 7.7859143429341096 -3.628804157477527 7.790323337403725 -3.6297626345361387 C 7.819154327326771 -3.6354368187231207 7.848943794308429 -3.6370470601815894 7.877161358913964 -3.645098267473929 C 7.898092192225585 -3.653460472754089 7.918055522971871 -3.664065590504047 7.936701953794936 -3.676728010408122 C 7.977763110985871 -3.706134086566336 8.006325727332506 -3.7399491571941637 7.989686565595001 -3.797189407134467 C 7.985796655372567 -3.808794219221825 7.985945281899928 -3.8213734280374827 7.990108295500789 -3.8328830927971747 C 7.994247294331389 -3.844357662166432 8.002171331498413 -3.8540801582809214 8.012574997754655 -3.860448893002853 C 8.046735120123584 -3.8753244569525096 8.047693597182196 -3.903465343393355 8.041751039418802 -3.9344433219276924 C 8.044243079771192 -3.9704820593315002 8.046428407464829 -4.006865848476408 8.048958786899561 -4.0429045858802155 C 8.047041832782337 -4.070086995262449 8.04550826948856 -4.097307743727027 8.043936367112437 -4.124490153109261 C 8.043936367112437 -4.15899532721929 8.053636154945588 -4.2004015361513245 8.038607234666554 -4.226318755816191 C 8.017353828037018 -4.254564505703104 7.986633494023179 -4.27420537499064 7.95207592581507 -4.2816420516392695 C 7.900334622126492 -4.291704540668126 7.847948835934018 -4.298110237194473 7.795307418108509 -4.300811592811508 C 7.776410290122893 -4.313817601321969 7.756730708312286 -4.325648397413707 7.736380248545046 -4.336236904897804 C 7.656443261856813 -4.372927406701468 7.655484784798201 -4.37354083201898 7.6614656816439375 -4.48993828601681 L 7.714143580785253 -4.435918518993443 C 7.750111348077622 -4.479249451983002 7.766158862678077 -4.5357289092671715 7.758348542728434 -4.591498515147328 C 7.774642652724836 -4.654758001015714 7.726987173370652 -4.702681853946309 7.717900810855012 -4.769851926213832 L 7.795652469849609 -4.918492548463367 C 7.834835012005662 -4.92006445083949 7.878388209548989 -4.908984456041937 7.904420446460888 -4.953266096149807 C 7.944868178334309 -5.007669253996618 7.942337798899574 -5.0715421651825165 7.943296275958186 -5.134456599309802 C 7.981635358302663 -5.163249250150503 7.970862076163865 -5.2073008557643075 7.977456398327115 -5.246100007096917 C 7.996057809833905 -5.256226991149605 8.011470963028431 -5.271334801946651 8.021968072929052 -5.289729882804931 C 8.03247668503889 -5.3081893701594645 8.037690277350997 -5.329189666928064 8.037035332290431 -5.350420650156237 C 8.028255682433546 -5.433616458843751 8.068396701648213 -5.492735323818933 8.107885956463024 -5.555343045287463 C 8.12827889698492 -5.5872508615878855 8.121074330017699 -5.629432439154032 8.09124679472552 -5.6527626535247775 L 8.05363615494559 -5.715983800310819 C 8.057738436756448 -5.73020759986062 8.068971787883381 -5.747613543245012 8.06460113249611 -5.758156790889743 C 8.056611893692029 -5.776500755139623 8.044534006907812 -5.792775084671887 8.029290837656847 -5.805735592079238 C 8.014120643500346 -5.818668756561019 7.996173398426375 -5.827931004384281 7.976842973009605 -5.832802984214438 C 7.95487467882622 -5.850822352916342 7.93390320078379 -5.870720336653125 7.910708055965383 -5.886477699496705 C 7.874431772577074 -5.90593595492752 7.846380067497263 -5.937812273848875 7.8316912072534155 -5.976267830347469 C 7.836406914381788 -5.979756686840816 7.844534799838817 -5.982593778934307 7.845493276897429 -5.987041112486266 C 7.874630979479232 -6.136295160053312 7.874630979479232 -6.136295160053312 7.826975500125046 -6.257408321179513 C 7.816010522574526 -6.284897443220503 7.80661744740013 -6.312731617002592 7.795652469849609 -6.340259078125927 C 7.849327185131877 -6.393703758914127 7.839512380051691 -6.455659715982801 7.819767752644285 -6.518919201851187 C 7.814438620198402 -6.535673380835723 7.799102987260612 -6.553999462196383 7.80286021733037 -6.567609836428671 C 7.821032942361651 -6.632786276414281 7.843921374521305 -6.696965900258935 7.865544616963589 -6.766973064619949 L 7.719127661490035 -6.841619257944644 C 7.628206037956888 -6.881537223000998 7.532866884217336 -6.910519913905624 7.435111739482153 -6.927958871384405 C 7.394282932128657 -6.962866427550191 7.338574340625298 -6.9747668905202245 7.287046203467785 -6.959588614318598 L 7.106852516448747 -6.959588614318598 C 7.041944450039548 -6.961467229353477 6.972359015584324 -6.980445075113993 6.91373855867962 -6.962425706412089 C 6.809954662773123 -6.930795963477896 6.703985439172989 -6.936508486747223 6.600239882348836 -6.920061020421443 C 6.530709309422486 -6.925655931698827 6.460732191015987 -6.920640021493448 6.392710429618186 -6.905185456471786 C 6.320901328386983 -6.891268369580741 6.243494721133485 -6.905185456471786 6.168848527808789 -6.892226846639353 C 6.159762165293149 -6.898859507884947 6.150062377459996 -6.91181811771738 6.141282727603111 -6.911396387811591 C 6.065703564134822 -6.914346640411186 5.993544119018965 -6.8797807021960145 5.948475482492739 -6.819037538443748 C 5.937401351982784 -6.820939829980103 5.926147527644533 -6.821582905656575 5.9149287854413215 -6.820954492560971 C 5.8898550255880355 -6.852584235495165 5.865394691052259 -6.826628676747954 5.840627643857728 -6.820954492560971 C 5.7465818748667274 -6.820954492560971 5.652536105875727 -6.818730825784992 5.5563050091910915 -6.816852210750112 C 5.508769618647458 -6.822205677819825 5.460985445049522 -6.8091898394890435 5.422731646302936 -6.780468421605204 C 5.404062186549029 -6.7652838315885235 5.378316880743711 -6.7622093197068445 5.356596729258714 -6.772570570642242 C 5.2939123296254955 -6.796264123531128 5.246256850271312 -6.762142340244544 5.190435146377754 -6.73906221267317 C 5.134613442484197 -6.715982085101795 5.063149392994093 -6.7611838631859325 5.008937930559004 -6.707432469738977 L 4.90013161486538 -6.675802726804784 C 4.834303410479913 -6.70171994646965 4.768781918753204 -6.7229214590061455 4.708436203142998 -6.662192352572495 L 4.708436203142998 -6.594408854987461 C 4.708436203142998 -6.590919998494114 4.699043127968601 -6.587776193741866 4.694020708181474 -6.584594049907275 C 4.570798897526328 -6.681361893744733 4.570798897526328 -6.681361893744733 4.466401576302319 -6.636466828319351 C 4.388848692428279 -6.639552885395231 4.311363929971516 -6.6288433982069535 4.237555593788141 -6.604837085385158 C 4.157977212795736 -6.586053624599736 4.077310214454773 -6.572224996312714 3.996019375017941 -6.563430876453124 L 3.697856331624947 -6.512209862440903 C 3.609829489674647 -6.502546131844968 3.5223535835880515 -6.488393359444181 3.435770364718098 -6.469806837367911 C 3.3908902681420385 -6.4554307884723485 3.3440323273283954 -6.448186048865601 3.2969062084664134 -6.448336951255006 C 3.1552432992035717 -6.455506359653423 3.0304879252546453 -6.402713443265079 2.908722999728589 -6.339147244737937 C 2.8350736225448494 -6.339147244737937 2.7595072912438865 -6.301191553216906 2.689270092388806 -6.350648969441281 C 2.6284643077904666 -6.337997072267603 2.5607574883701214 -6.35287263621726 2.5083863018875667 -6.305447191357143 C 2.498206368239426 -6.3049818501155155 2.4881588007965267 -6.302951646655368 2.4785968349059084 -6.29942795542906 L 2.405062474969203 -6.29942795542906 C 2.375403870363773 -6.303376788388704 2.3453526786296583 -6.303376788388704 2.315694074024228 -6.29942795542906 C 2.227284150137866 -6.276654540516441 2.1410978930274833 -6.289613150348874 2.0523812564823647 -6.295594047194612 C 1.9753037081704132 -6.3021600290338124 1.8991867527968012 -6.317216271388965 1.8254138890030644 -6.340489112619994 C 1.7916089801568154 -6.352072151433919 1.7571610415422827 -6.3616858273534715 1.7222434184140814 -6.3692817634606955 C 1.7076454745616263 -6.37304574502793 1.6922224694407495 -6.371996926894165 1.6782684909649652 -6.366291315037826 C 1.664249995584206 -6.360580498495526 1.6524179003825594 -6.35054806363102 1.6444917594194814 -6.337652020526503 C 1.6131687291440442 -6.325000123352826 1.609066447333185 -6.295479029947579 1.603737314887303 -6.2674531607537665 C 1.575945137668433 -6.261502658213986 1.549282670069918 -6.251148301865048 1.5247588052576817 -6.2367818948781855 C 1.460477817683507 -6.182774850361846 1.4241559463015496 -6.102531150814206 1.4259973291383108 -6.01859417725577 C 1.4298576957469264 -5.954188046124401 1.4207311105301845 -5.889663088642034 1.3991599714971774 -5.828854058732957 C 1.3911289369796451 -5.794356478270243 1.387865288044402 -5.758920732716437 1.3894601836640248 -5.723536599532681 C 1.3055105237006472 -5.679316838699719 1.2115591132885506 -5.657539234571303 1.11671595186542 -5.660315452746639 C 1.093673128536055 -5.661621952672041 1.0705608122070653 -5.659699152486101 1.0480506553864632 -5.654602929477313 C 0.9798837669779843 -5.635931796375552 0.9121769475576391 -5.614040180356856 0.8338118632455296 -5.589924897562181 C 0.8124953334620006 -5.569375149425541 0.7874215736087131 -5.526703750776139 0.7516895488636612 -5.514358566261218 C 0.6679569930233247 -5.485987645326305 0.6394327157590345 -5.414523595836201 0.593042426122218 -5.351915874367672 C 0.6077646337424971 -5.313308418446784 0.6206465654102411 -5.280451824877568 0.633183445336885 -5.247250179567251 L 0.633183445336885 -5.210367982351865 C 0.6274338199987339 -5.180998012086284 0.6414017940685302 -5.151292787231184 0.6676886194469134 -5.136986978744537 C 0.6717534194191326 -5.1257357955598515 0.6773388473331838 -5.115093813968415 0.6842894421020718 -5.105357235810344 C 0.7787162676089592 -5.012344792837421 0.8405735646628385 -4.891319646427657 0.8606492208866627 -4.760305494710058 C 0.8606492208866627 -4.7504906896298715 0.8750647158481861 -4.742286126008153 0.8825791759877035 -4.7334681370689236 L 0.8851095554224389 -4.662924225555087 C 0.8731861008133066 -4.626272062833768 0.8609559335454187 -4.589581561030104 0.8490324789362864 -4.5528910592264396 C 0.8255306214591227 -4.479548394701457 0.7976197695123437 -4.407432580811497 0.7797537571398181 -4.331521197769433 C 0.7626306562688272 -4.279220407292244 0.7726947918547356 -4.221826079779465 0.8065911147809512 -4.1784715810502835 C 0.8367031207295914 -4.140683197354818 0.8533035928978512 -4.093904956269299 0.8537481860646574 -4.045588321644329 C 0.8537481860646574 -4.030712757694673 0.8729177272368953 -4.017447435203484 0.8829242277288039 -4.003415331065406 C 0.881964080844464 -3.991933644270795 0.881964080844464 -3.9803918437499863 0.8829242277288039 -3.9689101569553764 C 0.8712176565195602 -3.9608292545413826 0.8622772675532808 -3.9493459405697235 0.8573137207226935 -3.9360152243038153 C 0.8523283953591687 -3.922653921306314 0.851526089896854 -3.908092077165301 0.8550133757820251 -3.8942639636306806 L 0.8255306214591227 -3.8310428168446395 C 0.8700004637748684 -3.7468478375066874 0.9270968784026619 -3.6699564476082522 0.9948360090923292 -3.60304029414204 C 1.0380824939768993 -3.5208029625131374 1.1077062675144684 -3.4525210568576243 1.1095848825493477 -3.350002350668495 C 1.1095848825493477 -3.3228199412862613 1.1506460397402818 -3.2965576698802943 1.1722692821825667 -3.270027024897917 C 1.182927547074331 -3.255764886265772 1.1907487198726041 -3.235521850787888 1.203630651540348 -3.228275764224783 C 1.2558424479699395 -3.198077899785251 1.296786762509462 -3.1516824191088095 1.3202581400322453 -3.0961209473833735 L 1.2644364361386877 -3.0572067788037294 L 1.2111451116798655 -3.01798589756533 C 1.1898130400178304 -2.988274586556522 1.1527786490188712 -2.9742036316396727 1.1170993426888651 -2.982253872820278 C 1.0695446910664865 -2.9834649203620716 1.0231410642851717 -2.9675298332767577 0.9863630718942009 -2.937358807394896 C 0.9447525407251471 -2.9050679914319812 0.9056614521655226 -2.869655310222066 0.8694288707435471 -2.8314279228771073 C 0.8577617036661445 -2.8114519733778134 0.8499580821260306 -2.7894587666705917 0.8464254213368623 -2.766596534632598 C 0.8078563044983189 -2.763107678139251 0.7639580552138936 -2.7729224832194372 0.7411079621365859 -2.7270689407354425 C 0.7213249956468362 -2.6758479267232222 0.728877794868698 -2.64233956875415 0.774616320105658 -2.5813804278264323 C 0.7874982517734019 -2.545955115740136 0.8003418443588017 -2.5105298036538404 0.813492149602957 -2.4747977789087887 C 0.8448535189607387 -2.4175575289684854 0.9246754884019386 -2.436228662070245 0.9586439153591444 -2.379946889188554 C 0.9926123423163506 -2.323665116306862 1.0659933459236781 -2.3363170134805396 1.131169785909288 -2.304380557887591 C 1.124575463746038 -2.209491329085012 1.1976114156122655 -2.180391965585555 1.2734844595719843 -2.1538613206031765 C 1.3048458289297657 -2.1427813258056227 1.336168859205203 -2.178513350550675 1.3309930830886985 -2.2196128468239538 C 1.3281545371041354 -2.2313069761790314 1.3240537488192534 -2.2426580609926705 1.3187629158208105 -2.2534662565341264 C 1.3790441006410175 -2.3179883320824546 1.4181019373581991 -2.399435763427945 1.430674697184337 -2.486836250764953 C 1.4334734501954838 -2.507079286242837 1.4526046522853775 -2.525405367603497 1.4639146815769981 -2.5446899260227687 C 1.4767582741623977 -2.5336099312252145 1.4883366770304296 -2.5130601830885753 1.5022537639214746 -2.5130601830885753 C 1.5919288775252047 -2.5004082859148986 1.6142038843673454 -2.4422478979983278 1.608222987521607 -2.362540945804161 L 1.4314031397488822 -2.2360219740673895 C 1.4693588312699137 -2.2018618516984607 1.4984965338517158 -2.175637919374839 1.5254489087398828 -2.150334125027485 C 1.5554206175027385 -2.17245718602781 1.5868536528087434 -2.192528728947333 1.619533016813228 -2.210411467061279 C 1.657872099157704 -2.2278174104456707 1.6947542963730902 -2.169311970788 1.739265970975027 -2.2050439955330523 C 1.743099879209475 -2.2192677950828528 1.7477389081731565 -2.2366353993849004 1.752109563560427 -2.2530828657106814 C 1.7781955195142536 -2.264622585212654 1.805408688880405 -2.273423822708317 1.8333117399660281 -2.2793451371166467 C 1.859650689536683 -2.282182229210139 1.8878682541422176 -2.2477153941824546 1.9135554393130167 -2.2739776655884207 C 1.9449168086707984 -2.305607408522614 1.9220283765111459 -2.3371988123744627 1.9135554393130167 -2.3716656474021467 C 1.9112553329972206 -2.388032698772833 1.9112553329972206 -2.4046409950088017 1.9135554393130167 -2.421008046379488 L 1.9674985281716948 -2.4346184206117774 C 1.985057827885465 -2.3745410785779835 1.985057827885465 -2.3745410785779835 2.023281892982908 -2.4001132465017485 L 2.077838407159098 -2.4358452712468 C 2.077358219764839 -2.4184163135450993 2.074296128397423 -2.4011549039802556 2.0687520446434573 -2.3846242572345804 C 2.04673354382165 -2.3494802425626578 2.046010128983926 -2.3050271389629255 2.066873429608578 -2.269185280295362 C 2.072728759579877 -2.2527448485725103 2.0756990115940788 -2.2354162167341975 2.0756530794654626 -2.217964266283142 C 2.0611760069614182 -2.218731400138783 2.0467001547052486 -2.216431986784013 2.033173376227783 -2.2112165877905134 C 2.019623591050553 -2.2059770687493567 2.007321118810197 -2.1979582598793157 1.9970579606592862 -2.187676391231005 C 1.9761641285850309 -2.166783980977289 1.9650310923026901 -2.13806074736885 1.9663866947837052 -2.1085445252720056 C 1.9171976521357421 -2.0895666795114893 1.8670117933468227 -2.0721607361270973 1.818436176016371 -2.0506908500141914 C 1.7698605586859195 -2.029220963901284 1.7034189289829422 -2.0361219987232904 1.6738978355776952 -1.9740126853252384 C 1.7021154001832297 -1.9604023110929498 1.7366205742932586 -1.9537696498473558 1.752914684289661 -1.9332199017107161 C 1.7750880181868194 -1.9007278960011496 1.793494038527554 -1.8658194828601617 1.807777911124607 -1.8291676322278079 C 1.8382572322304598 -1.8340203383041134 1.869312387645497 -1.8340203383041134 1.89979170875135 -1.8291676322278079 C 1.945460355314748 -1.8108754561850402 1.9977049260252762 -1.8235786011411816 2.029876215146158 -1.860797375162 C 2.057787067092937 -1.8864078821681103 2.08539120638096 -1.8626759901968795 2.112957006586638 -1.855429903633774 L 2.2518595019206757 -1.8196978788887224 C 2.2972913144988802 -1.8465352365298555 2.3421480408419177 -1.874369410311945 2.387886566078878 -1.9002099518121227 C 2.412728222083315 -1.917947794678458 2.445030428604945 -1.9214222444348348 2.473076007048304 -1.9093729924924512 C 2.568693678415428 -1.8638261626672143 2.629844514754868 -1.909372992492452 2.677499994109052 -1.9893866573453742 C 2.6802987471201987 -1.9941023644737443 2.6871997819422044 -1.9963260312497244 2.6922222017293307 -1.9994698360019711 C 2.7050838228574214 -1.9919271420394953 2.7153210858971177 -1.9806193155446676 2.721551599722855 -1.9670733114208891 C 2.7278308154519304 -1.953499244226128 2.7298492416849487 -1.938340996886776 2.7273408011568714 -1.9235967920422539 C 2.72450370906338 -1.8900884340731814 2.7207464789936213 -1.8565417370217645 2.717602674241374 -1.824950333169915 C 2.7837759303679404 -1.7885665440250076 2.8461536173424036 -1.7572818528319152 2.909796494034234 -1.7698954109232465 C 3.0072927804362375 -1.7890649520954849 3.1014919057566157 -1.8246052814288145 3.197569646111873 -1.8530912196107607 C 3.201619690488815 -1.8193130644372113 3.197206048007191 -1.7850579287589348 3.1847260535264743 -1.753409605515122 C 3.1723537161808295 -1.721676336865717 3.1521945288007855 -1.6935668617223207 3.1261055966217692 -1.671670681956698 C 3.059932340495203 -1.6179959666744326 2.9693370889152053 -1.6283475189074412 2.8969145623664896 -1.5913503044450215 C 2.891278717261852 -1.547068664337151 2.885949584815969 -1.5070043232871742 2.880620452370087 -1.4648313327082487 C 2.899687233421931 -1.4488496838864915 2.9207288132335236 -1.4353846190346147 2.9432281738386172 -1.424766991658271 C 2.9651834445711605 -1.415433763131566 2.989881061563987 -1.414871206300063 3.0122385220586745 -1.4231950892821486 C 3.0893384166534164 -1.4715790112008778 3.16080246614352 -1.4298277505277426 3.234183469750848 -1.416217376295454 C 3.238612279687547 -1.359003171847422 3.266951460440687 -1.306305657932202 3.3122418414042016 -1.2710656105392673 L 3.447042054927381 -1.2710656105392673 C 3.5363721167900106 -1.2732892773152464 3.6229034256414936 -1.2691869955043869 3.7031854640708266 -1.2195378838682904 C 3.7565667239726754 -1.1922016786045964 3.8191124771919776 -1.18908835204926 3.874944552974081 -1.2109882685054725 C 3.91382038247138 -1.2224899932088151 3.9549198787446587 -1.2271290221724964 3.9950225588769817 -1.2347201604767024 C 4.01196843327324 -1.2403943446636854 4.031406348021889 -1.2543114315547301 4.045821842983413 -1.2500557934144938 C 4.106320914922996 -1.232956562688857 4.160264003781674 -1.252279460190473 4.218884460686379 -1.2642795929642947 C 4.300048298009635 -1.281033771948831 4.378106669662989 -1.3217882164810089 4.464983030255572 -1.3064525835432184 C 4.482542329969342 -1.2748611796913698 4.491820387896706 -1.2390908158639737 4.5276674298887905 -1.2207647345033132 L 4.670327155292587 -1.2482921956266466 C 4.67276134806532 -1.2821373523120005 4.685378039311825 -1.3144542584921348 4.706519249025774 -1.3409960967355916 C 4.727550898124618 -1.3674336233726594 4.756146245468628 -1.3868271002897847 4.788488207078264 -1.3965877661350818 C 4.853089560828707 -1.4184027039890879 4.898521373406911 -1.4968444664658866 4.980183618800645 -1.4636428211555703 C 5.025615431378849 -1.4952342250074189 5.033858334082913 -1.5625959926866626 5.098037957927566 -1.5748261599545517 C 5.108894235964851 -1.5625513949410301 5.121457124571432 -1.5518994081985529 5.135341885048741 -1.5431964170203587 C 5.198064623764305 -1.5115666740861666 5.237860591237871 -1.5274007150944344 5.260749023397523 -1.5909669136215765 C 5.266384868502161 -1.6080278052648689 5.264812966126037 -1.6308012201774869 5.275471231017802 -1.6418428758926975 C 5.293628285023669 -1.6561420504894206 5.313678449184618 -1.6678573330236173 5.335050164981118 -1.6766547626614798 C 5.377223155560042 -1.6883481827765463 5.420316284115234 -1.6984697005154876 5.460457303329901 -1.7126935000652885 C 5.479937990144875 -1.7213999239368825 5.498518937777645 -1.731993760700556 5.5159339554823585 -1.7443232429994815 C 5.5782326020930855 -1.7387021447120539 5.6407681060027635 -1.752153228084544 5.695245843607472 -1.7828923598380229 C 5.803400394901241 -1.7765664112511868 5.902775296338124 -1.8145221027722176 6.002801962174862 -1.8461518457064114 C 6.022836986979181 -1.8516904028918812 6.041418283938789 -1.861543724448631 6.057243459104018 -1.8750211747118009 C 6.073106495792158 -1.8885530919099809 6.085868869613545 -1.9053429361586103 6.094662403472228 -1.9242485564421088 C 6.105934093681503 -1.9261271714769874 6.117665852878913 -1.9273923611943546 6.129435951158667 -1.9283508382529675 C 6.206114115847621 -1.9150855157617777 6.274281004256099 -1.954268057917833 6.347010243463572 -1.9650413400566311 C 6.444525976765467 -1.9572659708745732 6.5425986447928395 -1.9696376128293238 6.635128447282309 -2.001386790119195 L 6.742976285917322 -2.001386790119195 C 6.822404260504131 -1.9930574405444155 6.899487400070502 -2.031397300231818 6.9407676117324755 -2.0997648754151217 C 6.965437982506618 -2.1293366777417226 6.993532767666435 -2.155874216449713 7.024461828490468 -2.1788200632094323 L 7.096270929721671 -2.0484671832382118 C 7.108271822217079 -2.0448663099223108 7.120738741201329 -2.0430576377380665 7.13326814418409 -2.043099711709986 C 7.2110198031786865 -2.0554448962249072 7.2367836665141745 -2.1411327452648115 7.305372284828444 -2.1639061601774308 C 7.352011262712203 -2.170897685761078 7.398258529516186 -2.1802904621401926 7.443929728421384 -2.1920470466182773 C 7.484377460294805 -2.201861851698462 7.524441801344782 -2.212596794754915 7.564621159641792 -2.223676789552469 C 7.612934982910593 -2.230002071818536 7.655449444253023 -2.258709631582334 7.679370033098811 -2.301160074970655 C 7.669670245265658 -2.3526878016416317 7.657133365339014 -2.404675597300742 7.650539043175764 -2.459270450559276 C 7.641093947179073 -2.495931836383318 7.656758538230582 -2.534454896285339 7.689108160014307 -2.55412134027951 C 7.709466212739224 -2.5639361453596963 7.74017581769715 -2.5683451398293107 7.748342042236523 -2.5841791808375807 C 7.765764251485619 -2.625109854886349 7.779717610215037 -2.667431623091384 7.790054963827313 -2.7106981525743525 L 7.664647825478532 -2.815057134716016 L 7.725146897418115 -2.878278281502058 C 7.736418587627391 -2.8805019482780376 7.756508266775896 -2.878278281502058 7.75808016915202 -2.8859460979709537 C 7.784074066981576 -2.9558382450849336 7.807614263541085 -3.026343817516426 7.832036258994515 -3.097194441689018 C 7.852188005391129 -3.086734548763958 7.873166385831469 -3.0779508136773854 7.894758997710081 -3.0709321702830517 C 7.943334615040529 -3.058932037509231 7.96998027726994 -3.0824338949863948 7.971858892304821 -3.1341916561514385 C 7.975034618980612 -3.1632568238611216 7.9632381741966825 -3.1919465861446796 7.9405358620293836 -3.210371412769912 C 7.9405358620293836 -3.2982829285857966 7.9405358620293836 -3.2982829285857966 8.008549394108483 -3.3194844411222917 L 8.144308084690275 -3.309056210724594 C 8.160476501665185 -3.3496764168068114 8.17438921455791 -3.3911585718071064 8.185982667198719 -3.4333131766030434 C 8.187654278014717 -3.441187185184411 8.187654278014717 -3.4493244163222814 8.185982667198719 -3.457198424903651 C 8.184328350501348 -3.465059006004116 8.181079248625272 -3.4724967090939325 8.176436235694945 -3.4790517018400027 C 8.171763192866315 -3.485558292351304 8.165782324051563 -3.4910168145446816 8.158876935981176 -3.495077438259994 C 8.152125992761652 -3.4992282056347794 8.144574568985446 -3.5019064787733996 8.136716946386072 -3.5029369501406116 Z" fill="#ffffff" transform="matrix(1,0,0,1,0,0)" fill-rule="nonzero"></path><path d=" M 8.21979773782655 -3.1942689981852324 C 8.212784045239413 -3.19564539452479 8.205550267429233 -3.1954226151357084 8.198634564372401 -3.193617233785376 C 8.184590339795081 -3.1899036602958137 8.172978269334832 -3.180039037332008 8.167043160520551 -3.1667798761442425 C 8.164057720282202 -3.1602268087588827 8.162589921362695 -3.153084394373782 8.16274918329797 -3.1458850762665027 C 8.16135646076002 -3.1341818661208274 8.164826566688772 -3.1224197893020547 8.172348810697503 -3.113346716567052 C 8.179871054706236 -3.1042736438320486 8.190786530313403 -3.0986843255805248 8.202545150771536 -3.0978845451712194 C 8.216761816542922 -3.0950231118877394 8.231507848638643 -3.0987907583657845 8.242609491821515 -3.108121080157194 C 8.253751995020437 -3.117506583693643 8.260097956220052 -3.131394529822294 8.259900417958873 -3.145961754431192 C 8.260715556226607 -3.1576694780610217 8.256995307469849 -3.1692420599870212 8.24951052664352 -3.1782816008475856 C 8.242053929775008 -3.187261831482915 8.231400330410322 -3.192994155270106 8.219797737826552 -3.1942689981852324 Z" fill="#ffffff" transform="matrix(1,0,0,1,0,0)" fill-rule="nonzero"></path><path d=" M 8.191235121479915 -3.6850859303592185 C 8.196257541267043 -3.6850859303592185 8.206915806158806 -3.702453534661266 8.205037191123928 -3.707207580871981 C 8.201921375121481 -3.7184660304810713 8.194571391720583 -3.728082831192525 8.184525782069633 -3.7340449385131143 C 8.17456231997125 -3.73994080930675 8.162691192916343 -3.7417152883219105 8.15143915400635 -3.738990680135552 C 8.147988636595347 -3.7345433465835933 8.141087601773341 -3.7291758750553665 8.142007739749607 -3.7256870185620192 C 8.143641698226354 -3.713958802716298 8.149621301905078 -3.7032721425948294 8.158761918734145 -3.695744195250983 C 8.167833530253237 -3.688184769701471 8.179448254455112 -3.6843726170118356 8.191235121479915 -3.685085930359219 Z" fill="#ffffff" transform="matrix(1,0,0,1,0,0)" fill-rule="nonzero"></path><path d=" M 3.1135926557723614 -2.532258710682727 C 3.0553305790076997 -2.532258710682727 3.0063374690010525 -2.5521207823070435 2.9666133257524194 -2.5918449255556766 C 2.9268891825037864 -2.6315690688043096 2.90702711087947 -2.680562178810957 2.90702711087947 -2.7388242555756186 L 2.90702711087947 -5.42814875350807 C 2.90702711087947 -5.489059106489307 2.9268891825037864 -5.538714285550099 2.9666133257524194 -5.577114290690444 C 3.0063374690010525 -5.615514295830788 3.0553305790076997 -5.6347142984009615 3.1135926557723614 -5.6347142984009615 C 3.1745030087535984 -5.6347142984009615 3.22415818781439 -5.615514295830788 3.262558192954735 -5.577114290690444 C 3.30095819809508 -5.538714285550099 3.3201582006652526 -5.489059106489307 3.3201582006652526 -5.42814875350807 L 3.3201582006652526 -2.7388242555756186 C 3.3201582006652526 -2.680562178810957 3.30095819809508 -2.6315690688043096 3.262558192954735 -2.5918449255556766 C 3.22415818781439 -2.5521207823070435 3.1745030087535984 -2.532258710682727 3.1135926557723614 -2.532258710682727" fill="NA" transform="matrix(1,0,0,1,0,0)" fill-rule="nonzero"></path><path d=" M 5.032332783310592 -2.532258710682727 C 4.9740707065459295 -2.532258710682727 4.925077596539283 -2.5521207823070435 4.88535345329065 -2.5918449255556766 C 4.845629310042017 -2.6315690688043096 4.825767238417701 -2.680562178810957 4.825767238417701 -2.7388242555756186 L 4.825767238417701 -5.6347142984009615 L 5.238898328203483 -5.6347142984009615 L 5.238898328203483 -2.7388242555756186 C 5.238898328203483 -2.680562178810957 5.219036256579167 -2.6315690688043096 5.179312113330534 -2.5918449255556766 C 5.139587970081901 -2.5521207823070435 5.090594860075253 -2.532258710682727 5.032332783310592 -2.532258710682727 M 3.967725744247228 -5.253362523214085 C 3.912111943699142 -5.253362523214085 3.866429178963214 -5.27123838767597 3.8306774500394445 -5.3069901165997395 C 3.794925721115675 -5.342741845523509 3.77704985665379 -5.388424610259437 3.77704985665379 -5.444038410807524 C 3.77704985665379 -5.49965221135561 3.794925721115675 -5.545334976091537 3.8306774500394445 -5.5810867050153075 C 3.866429178963214 -5.616838433939076 3.912111943699142 -5.6347142984009615 3.967725744247228 -5.6347142984009615 L 6.092967408049091 -5.6347142984009615 C 6.148581208597178 -5.6347142984009615 6.194263973333106 -5.616838433939076 6.230015702256876 -5.5810867050153075 C 6.265767431180645 -5.545334976091537 6.2836432956425305 -5.49965221135561 6.2836432956425305 -5.444038410807524 C 6.2836432956425305 -5.388424610259437 6.265767431180645 -5.342741845523509 6.230015702256876 -5.3069901165997395 C 6.194263973333106 -5.27123838767597 6.148581208597178 -5.253362523214085 6.092967408049091 -5.253362523214085 L 3.967725744247228 -5.253362523214085" fill="NA" transform="matrix(1,0,0,1,0,0)" fill-rule="nonzero"></path></mask></defs></svg>